<svg id="Lager_1" data-name="Lager 1" xmlns="http://www.w3.org/2000/svg" viewBox="0 0 1374 1374"><defs><style>.cls-1{opacity:0.84;}.cls-2{fill:#f2f2f2;stroke:#000;stroke-miterlimit:10;stroke-width:8px;}.cls-3{isolation:isolate;}.cls-4{fill:#bf8d50;}.cls-5{fill:#a66f5b;}.cls-6{fill:#59433e;}</style></defs><title>lslslslsd</title><g id="Layer_3" data-name="Layer 3" class="cls-1"><rect class="cls-2" x="4" y="4" width="1366" height="1366"/></g><g id="Layer_1" data-name="Layer 1" class="cls-1"><rect x="39" y="987" width="1296" height="71"/><g class="cls-3"><path d="M35,289h88V889H411v74H35Z" transform="translate(4 4)"/></g><g class="cls-3"><path d="M264.2,770.19c31.2,19.2,76.8,35.2,124.8,35.2,71.2,0,112.8-37.6,112.8-92,0-50.4-28.8-79.2-102.4-107.2-87.2-30.4-141.6-77.6-141.6-152.8,0-83.2,69.6-145.6,174.4-145.6,54.4,0,95.2,12.8,119.2,25.6l-19.2,56.8a214.75,214.75,0,0,0-102.4-25.6c-73.6,0-101.6,44-101.6,80.8,0,50.4,32.8,75.2,107.2,104,91.2,36,137.6,79.2,137.6,158.4,0,83.2-61.6,156-188.8,156-52.8,0-109.6-16-138.4-35.2Z" transform="translate(4 4)"/></g><rect class="cls-4" x="606" y="290.19" width="71" height="696.47"/><rect class="cls-5" x="704" y="214.88" width="71" height="771.58"/><rect class="cls-6" x="800" y="122.93" width="71" height="863.5"/><g class="cls-3"><path d="M895,323a1017.16,1017.16,0,0,1,148.8-11.2c100,0,171.2,23.2,218.4,67.2,48,44,76,107.2,76,193.6,0,88-27.2,159.2-77.6,209.6-51.2,50.4-133.6,77.6-238.4,77.6-49.6,0-91.2-2.4-127.2-6.4Zm70.4,476.8c17.6,3.2,43.2,4,70.4,4,148.8,0,229.6-83.2,229.6-228.8.8-127.2-71.2-208-218.4-208a461.59,461.59,0,0,0-81.6,7.2Z" transform="translate(4 4)"/></g></g><g id="Layer_2" data-name="Layer 2" class="cls-1"><g class="cls-3"><g class="cls-3"><path d="M125.5,1142.6h8.8v60h28.8v7.4H125.5Z" transform="translate(4 4)"/></g><g class="cls-3"><path d="M176,1187.4c.2,11.9,7.7,16.8,16.6,16.8a31.48,31.48,0,0,0,13.4-2.5l1.5,6.3a38.48,38.48,0,0,1-16.1,3.1c-14.9,0-23.8-9.9-23.8-24.4,0-14.7,8.6-26.1,22.8-26.1,15.7,0,19.9,13.8,19.9,22.7a19.3,19.3,0,0,1-.4,4.1Zm25.8-6.3c.1-5.5-2.3-14.2-12.2-14.2-8.9,0-12.8,8.1-13.5,14.2Z" transform="translate(4 4)"/><path d="M221.4,1143.5a87.15,87.15,0,0,1,16-1.4c8.7,0,14.3,1.5,18.4,4.9,3.6,2.6,5.7,6.6,5.7,11.9,0,6.5-4.4,12.3-11.4,14.8v.2c6.4,1.6,13.9,6.8,13.9,17a17.47,17.47,0,0,1-5.8,13.4c-4.6,4.3-12.2,6.3-23.2,6.3a103.49,103.49,0,0,1-13.6-.8Zm8.8,27.7h7.9c9.1,0,14.6-4.9,14.6-11.4,0-7.9-6-11-14.8-11a37.32,37.32,0,0,0-7.7.6Zm0,32.2a46.49,46.49,0,0,0,7.3.4c9,0,17.4-3.3,17.4-13,0-9.3-8-13.1-17.5-13.1h-7.2Z" transform="translate(4 4)"/></g><g class="cls-3"><path d="M275.4,1176.7c0-5.7-.2-10.5-.4-15h7.7l.3,9.5h.3c2.3-6.5,7.7-10.6,13.5-10.6a8.6,8.6,0,0,1,2.4.2v8.3a11.74,11.74,0,0,0-2.9-.3c-6.3,0-10.6,4.7-11.8,11.3a17.52,17.52,0,0,0-.4,4V1210h-8.7Z" transform="translate(4 4)"/></g><g class="cls-3"><path d="M318.4,1148a5.31,5.31,0,0,1-5.6,5.4,5.12,5.12,0,0,1-5.3-5.4,5.28,5.28,0,0,1,5.4-5.5A5.42,5.42,0,0,1,318.4,1148Zm-9.9,62v-48.3h8.7V1210Z" transform="translate(4 4)"/><path d="M366.4,1208.2a32.1,32.1,0,0,1-13.9,2.9c-14.6,0-24.1-9.9-24.1-24.7s10.2-25.8,26-25.8a29.8,29.8,0,0,1,12.2,2.5l-2,6.8a20.41,20.41,0,0,0-10.2-2.3c-11.1,0-17.1,8.3-17.1,18.3,0,11.2,7.2,18.1,16.9,18.1a24.87,24.87,0,0,0,10.7-2.4Z" transform="translate(4 4)"/><path d="M385.4,1183.8h.2c1.2-1.7,2.8-3.8,4.2-5.5l14.3-16.6h10.6L396,1181.5l21.3,28.5H406.6L390,1186.7l-4.6,5.1V1210h-8.7v-71h8.7Z" transform="translate(4 4)"/></g><g class="cls-3"><path d="M443.89,1199.4a30.83,30.83,0,0,0,15.6,4.4c8.9,0,14.1-4.7,14.1-11.5,0-6.3-3.6-9.9-12.8-13.4-10.9-3.8-17.7-9.7-17.7-19.1,0-10.4,8.7-18.2,21.8-18.2a32.33,32.33,0,0,1,14.9,3.2l-2.4,7.1a26.84,26.84,0,0,0-12.8-3.2c-9.2,0-12.7,5.5-12.7,10.1,0,6.3,4.1,9.4,13.4,13,11.4,4.5,17.2,9.9,17.2,19.8,0,10.4-7.7,19.5-23.6,19.5-6.6,0-13.7-2-17.3-4.4Z" transform="translate(4 4)"/></g><g class="cls-3"><path d="M504.4,1147.7v14H517v6.6H504.4v26.1c0,6,1.7,9.4,6.6,9.4a20.2,20.2,0,0,0,5.1-.6l.4,6.6a19.5,19.5,0,0,1-7.9,1.3,12.71,12.71,0,0,1-9.5-3.7c-2.3-2.8-3.3-7-3.3-12.7v-26.4h-7.5v-6.6h7.5V1150Z" transform="translate(4 4)"/></g><g class="cls-3"><path d="M560.9,1198.4a81.21,81.21,0,0,0,.7,11.6h-7.9l-.8-6.1h-.2a18.3,18.3,0,0,1-14.8,7.2c-9.7,0-14.8-7-14.8-13.9,0-11.7,10.4-18.1,29.1-17.9v-1.1c0-4-1.2-11.2-11-11.2a23.85,23.85,0,0,0-12.6,3.6l-2-5.8c4-2.6,9.9-4.2,15.9-4.2,14.8,0,18.4,10.1,18.4,19.8Zm-8.5-13c-9.6-.3-20.5,1.4-20.5,10.8,0,5.8,3.9,8.4,8.3,8.4a12.18,12.18,0,0,0,11.8-8.1,14.52,14.52,0,0,0,.4-2.8Z" transform="translate(4 4)"/></g><g class="cls-3"><path d="M585.29,1147.7v14h12.6v6.6h-12.6v26.1c0,6,1.7,9.4,6.6,9.4a20.2,20.2,0,0,0,5.1-.6l.4,6.6a19.5,19.5,0,0,1-7.9,1.3,12.71,12.71,0,0,1-9.5-3.7c-2.3-2.8-3.3-7-3.3-12.7v-26.4h-7.5v-6.6h7.5V1150Z" transform="translate(4 4)"/><path d="M617.69,1148a5.31,5.31,0,0,1-5.6,5.4,5.12,5.12,0,0,1-5.3-5.4,5.28,5.28,0,0,1,5.4-5.5A5.42,5.42,0,0,1,617.69,1148Zm-9.9,62v-48.3h8.7V1210Z" transform="translate(4 4)"/><path d="M630,1201a23.06,23.06,0,0,0,11.6,3.5c6.4,0,9.4-3.2,9.4-7.2,0-4.2-2.5-6.4-9-8.8-8.7-3.2-12.8-8-12.8-13.8,0-7.7,6.3-14.1,16.7-14.1a24.21,24.21,0,0,1,11.9,2.9l-2.2,6.4a19.8,19.8,0,0,0-10-2.9c-5.1,0-8,3.1-8,6.7,0,4,2.8,5.8,9.2,8.3,8.3,3.1,12.7,7.2,12.7,14.5,0,8.5-6.6,14.6-18.1,14.6a27.59,27.59,0,0,1-13.6-3.4Z" transform="translate(4 4)"/><path d="M681.39,1147.7v14H694v6.6h-12.6v26.1c0,6,1.7,9.4,6.6,9.4a20.2,20.2,0,0,0,5.1-.6l.4,6.6a19.5,19.5,0,0,1-7.9,1.3,12.71,12.71,0,0,1-9.5-3.7c-2.3-2.8-3.3-7-3.3-12.7v-26.4h-7.5v-6.6h7.5V1150Z" transform="translate(4 4)"/><path d="M713.79,1148a5.31,5.31,0,0,1-5.6,5.4,5.12,5.12,0,0,1-5.3-5.4,5.28,5.28,0,0,1,5.4-5.5A5.42,5.42,0,0,1,713.79,1148Zm-9.9,62v-48.3h8.7V1210Z" transform="translate(4 4)"/><path d="M761.79,1208.2a32.1,32.1,0,0,1-13.9,2.9c-14.6,0-24.1-9.9-24.1-24.7s10.2-25.8,26-25.8a29.8,29.8,0,0,1,12.2,2.5l-2,6.8a20.41,20.41,0,0,0-10.2-2.3c-11.1,0-17.1,8.3-17.1,18.3,0,11.2,7.2,18.1,16.9,18.1a24.87,24.87,0,0,0,10.7-2.4Z" transform="translate(4 4)"/><path d="M770.89,1201a23.06,23.06,0,0,0,11.6,3.5c6.4,0,9.4-3.2,9.4-7.2,0-4.2-2.5-6.4-9-8.8-8.7-3.2-12.8-8-12.8-13.8,0-7.7,6.3-14.1,16.7-14.1a24.21,24.21,0,0,1,11.9,2.9l-2.2,6.4a19.8,19.8,0,0,0-10-2.9c-5.1,0-8,3.1-8,6.7,0,4,2.8,5.8,9.2,8.3,8.3,3.1,12.7,7.2,12.7,14.5,0,8.5-6.6,14.6-18.1,14.6a27.59,27.59,0,0,1-13.6-3.4Z" transform="translate(4 4)"/><path d="M833.19,1143.5a127.14,127.14,0,0,1,18.6-1.4c12.5,0,21.4,2.9,27.3,8.4s9.5,13.4,9.5,24.2c0,11-3.4,19.9-9.7,26.2s-16.7,9.7-29.8,9.7a143.68,143.68,0,0,1-15.9-.8Zm8.8,59.6a54.94,54.94,0,0,0,8.8.5c18.6,0,28.7-10.4,28.7-28.6.1-15.9-8.9-26-27.3-26a57.7,57.7,0,0,0-10.2.9Z" transform="translate(4 4)"/></g><g class="cls-3"><path d="M933.49,1198.4a81.21,81.21,0,0,0,.7,11.6h-7.9l-.8-6.1h-.2a18.3,18.3,0,0,1-14.8,7.2c-9.7,0-14.8-7-14.8-13.9,0-11.7,10.4-18.1,29.1-17.9v-1.1c0-4-1.2-11.2-11-11.2a23.85,23.85,0,0,0-12.6,3.6l-2-5.8c4-2.6,9.9-4.2,15.9-4.2,14.8,0,18.4,10.1,18.4,19.8Zm-8.5-13c-9.6-.3-20.5,1.4-20.5,10.8,0,5.8,3.9,8.4,8.3,8.4a12.18,12.18,0,0,0,11.8-8.1,14.52,14.52,0,0,0,.4-2.8Z" transform="translate(4 4)"/></g><g class="cls-3"><path d="M957.89,1147.7v14h12.6v6.6h-12.6v26.1c0,6,1.7,9.4,6.6,9.4a20.2,20.2,0,0,0,5.1-.6l.4,6.6a19.5,19.5,0,0,1-7.9,1.3,12.71,12.71,0,0,1-9.5-3.7c-2.3-2.8-3.3-7-3.3-12.7v-26.4h-7.5v-6.6h7.5V1150Z" transform="translate(4 4)"/><path d="M1014.39,1198.4a81.21,81.21,0,0,0,.7,11.6h-7.9l-.8-6.1h-.2a18.3,18.3,0,0,1-14.8,7.2c-9.7,0-14.8-7-14.8-13.9,0-11.7,10.4-18.1,29.1-17.9v-1.1c0-4-1.2-11.2-11-11.2a23.85,23.85,0,0,0-12.6,3.6l-2-5.8c4-2.6,9.9-4.2,15.9-4.2,14.8,0,18.4,10.1,18.4,19.8Zm-8.5-13c-9.6-.3-20.5,1.4-20.5,10.8,0,5.8,3.9,8.4,8.3,8.4a12.18,12.18,0,0,0,11.8-8.1,14.52,14.52,0,0,0,.4-2.8Z" transform="translate(4 4)"/><path d="M1028.59,1139h8.7v30.4h.2c3.1-5.4,8.7-8.8,16.5-8.8,12,0,20.5,10,20.5,24.6,0,17.3-11.1,25.9-21.8,25.9-7,0-12.6-2.7-16.3-9h-.2l-.4,7.9h-7.6c.2-3.3.4-8.2.4-12.4Zm8.7,51.6a11.24,11.24,0,0,0,.4,3.2,13.55,13.55,0,0,0,13.2,10.3c9.3,0,14.7-7.5,14.7-18.6,0-9.7-5-18-14.5-18-5.9,0-11.5,4.1-13.3,10.8a18.38,18.38,0,0,0-.5,3.6Z" transform="translate(4 4)"/><path d="M1119.59,1198.4a81.21,81.21,0,0,0,.7,11.6h-7.9l-.8-6.1h-.2a18.3,18.3,0,0,1-14.8,7.2c-9.7,0-14.8-7-14.8-13.9,0-11.7,10.4-18.1,29.1-17.9v-1.1c0-4-1.2-11.2-11-11.2a23.85,23.85,0,0,0-12.6,3.6l-2-5.8c4-2.6,9.9-4.2,15.9-4.2,14.8,0,18.4,10.1,18.4,19.8Zm-8.5-13c-9.6-.3-20.5,1.4-20.5,10.8,0,5.8,3.9,8.4,8.3,8.4a12.18,12.18,0,0,0,11.8-8.1,14.52,14.52,0,0,0,.4-2.8Z" transform="translate(4 4)"/><path d="M1132.59,1201a23.06,23.06,0,0,0,11.6,3.5c6.4,0,9.4-3.2,9.4-7.2,0-4.2-2.5-6.4-9-8.8-8.7-3.2-12.8-8-12.8-13.8,0-7.7,6.3-14.1,16.7-14.1a24.21,24.21,0,0,1,11.9,2.9l-2.2,6.4a19.8,19.8,0,0,0-10-2.9c-5.1,0-8,3.1-8,6.7,0,4,2.8,5.8,9.2,8.3,8.3,3.1,12.7,7.2,12.7,14.5,0,8.5-6.6,14.6-18.1,14.6a27.59,27.59,0,0,1-13.6-3.4Z" transform="translate(4 4)"/><path d="M1178.29,1187.4c.2,11.9,7.7,16.8,16.6,16.8a31.48,31.48,0,0,0,13.4-2.5l1.5,6.3a38.48,38.48,0,0,1-16.1,3.1c-14.9,0-23.8-9.9-23.8-24.4,0-14.7,8.6-26.1,22.8-26.1,15.7,0,19.9,13.8,19.9,22.7a19.3,19.3,0,0,1-.4,4.1Zm25.8-6.3c.1-5.5-2.3-14.2-12.2-14.2-8.9,0-12.8,8.1-13.5,14.2Z" transform="translate(4 4)"/></g></g><path d="M1323,1115v116H43V1115H1323m8-8H35v132H1331Z" transform="translate(4 4)"/></g></svg>